<svg xmlns="http://www.w3.org/2000/svg" width="374.131" height="53.172" viewBox="0 0 374.131 53.172"><defs><style>.a,.b{fill:#fff;}.b{fill-rule:evenodd;}.c{fill:#f08e43;}</style></defs><g transform="translate(-18.9 -18.9)"><g transform="translate(19.093 18.9)"><path class="a" d="M103.43,18.9h13.1a12.933,12.933,0,0,1,8.669,3.468,12.221,12.221,0,0,1,3.468,8.669V42.211A12.933,12.933,0,0,1,125.2,50.88a12.37,12.37,0,0,1-8.669,3.66h-13.1A12.5,12.5,0,0,1,91.1,42.211V31.037a12.256,12.256,0,0,1,3.66-8.669A12.933,12.933,0,0,1,103.43,18.9Zm13.1,10.6h-13.1a2.738,2.738,0,0,0-1.156.385,2.065,2.065,0,0,0-.385,1.156V42.211a2.738,2.738,0,0,0,.385,1.156,2.065,2.065,0,0,0,1.156.385h13.1a2.738,2.738,0,0,0,1.156-.385,2.065,2.065,0,0,0,.385-1.156V31.037a2.738,2.738,0,0,0-.385-1.156,2.738,2.738,0,0,0-1.156-.385Z" transform="translate(47.802 -18.9)"/><path class="a" d="M107.075,40.477V42.4a11.494,11.494,0,0,1-3.66,8.477h0a12.269,12.269,0,0,1-8.477,3.66h-13.1a11.494,11.494,0,0,1-8.477-3.66,12.37,12.37,0,0,1-3.66-8.669V31.037a12.256,12.256,0,0,1,3.66-8.669A12.1,12.1,0,0,1,81.837,18.9h13.1a12.1,12.1,0,0,1,8.477,3.468,12.37,12.37,0,0,1,3.66,8.669v2.7h-10.6v-2.7a2.738,2.738,0,0,0-.385-1.156,2.065,2.065,0,0,0-1.156-.385h-13.1a2.738,2.738,0,0,0-1.156.385,2.065,2.065,0,0,0-.385,1.156V42.211a2.738,2.738,0,0,0,.385,1.156,2.065,2.065,0,0,0,1.156.385h13.1a2.738,2.738,0,0,0,1.156-.385h0a2.065,2.065,0,0,0,.385-1.156V40.284h10.6Z" transform="translate(27.975 -18.9)"/><path class="a" d="M187.737,18.9h13.1a12.933,12.933,0,0,1,8.669,3.468,12.37,12.37,0,0,1,3.66,8.669V42.211a12.5,12.5,0,0,1-12.33,12.33h-13.1A12.169,12.169,0,0,1,175.6,42.211V31.037a12.933,12.933,0,0,1,3.468-8.669,12.933,12.933,0,0,1,8.669-3.468Zm13.1,10.6h-13.1a2.739,2.739,0,0,0-1.156.385,2.065,2.065,0,0,0-.385,1.156V42.211a2.739,2.739,0,0,0,.385,1.156,2.066,2.066,0,0,0,1.156.385h13.1a2.738,2.738,0,0,0,1.156-.385,2.065,2.065,0,0,0,.385-1.156V31.037a2.738,2.738,0,0,0-.385-1.156,2.738,2.738,0,0,0-1.156-.385Z" transform="translate(126.093 -18.9)"/><path class="a" d="M67.82,54.541,50.1,35.468V54.541H39.5V18.9h8.862L66.086,37.973V18.9h10.6V54.541Z" transform="translate(-0.006 -18.9)"/><path class="a" d="M140.927,54.541,123.2,35.468V54.541H112.8V18.9h8.669l17.724,19.073V18.9h10.6V54.541Z" transform="translate(67.908 -18.9)"/><rect class="a" width="10.596" height="35.448" transform="translate(82.648 0)"/><path class="a" d="M146.13,28.918H133.8V18.9h35.448V28.918H156.726V54.541h-10.6Z" transform="translate(87.365 -18.9)"/><path class="a" d="M154.1,54.541V18.9h25.815a12.085,12.085,0,0,1,8.669,3.275c2.119,2.119,3.275,5.78,3.275,9.247,0,3.082-.963,6.55-2.89,8.669a9.884,9.884,0,0,1-4.431,2.89l7.9,11.174H180.3l-7.513-10.4H164.5v10.4H154.1Zm10.6-25.623v5.2h16.568v-5.2Z" transform="translate(106.173 -18.9)"/><path class="a" d="M225.813,54.541H197.3V18.9h10.6V44.523h19.843V54.541Z" transform="translate(146.199 -18.9)"/><path class="b" d="M23.431,34.12,35.953,48.761,48.668,34.12H41.733V18.9H53.292V40.284c-.771,8.477-9.825,15.22-17.146,15.22S19.578,48.761,19,40.284V18.9H30.559V34.12Z" transform="translate(-19 -18.9)"/></g><rect class="c" width="34.292" height="10.596" transform="translate(18.9 61.476)"/></g></svg>