<svg width="13384" height="5790" viewBox="0 0 13384 5790" fill="none" xmlns="http://www.w3.org/2000/svg">
<rect x="-14.5217" y="14.5217" width="1588.68" height="428.019" transform="matrix(1 0 0 -1 867.703 1632.53)" fill="white" stroke="white" stroke-width="29.0435" stroke-linejoin="round"/>
<path d="M1665.66 2488.31C1673.68 2488.3 1680.18 2481.8 1680.18 2473.78V2074.81C1680.18 2066.79 1673.68 2060.29 1665.66 2060.29H505C496.98 2060.29 490.479 2066.79 490.479 2074.81V2473.78C490.479 2481.8 496.98 2488.31 505 2488.31H1665.66Z" fill="white" stroke="white" stroke-width="29.0435" stroke-linejoin="round"/>
<path d="M6181.31 2354.45C6181.31 2387.41 6208.03 2414.13 6241 2414.13L6351 2414.13C6383.97 2414.13 6410.69 2387.41 6410.69 2354.45L6410.69 2244.45C6410.69 2211.48 6383.97 2184.76 6351 2184.76L6241 2184.76C6208.03 2184.76 6181.31 2211.48 6181.31 2244.45L6181.31 2354.45Z" fill="white" stroke="white" stroke-width="119.377" stroke-linejoin="round"/>
<path d="M2427.34 3340.88C2435.36 3340.88 2441.86 3334.38 2441.86 3326.36V2927.39C2441.86 2919.37 2435.36 2912.86 2427.34 2912.86H867.703C859.683 2912.86 853.182 2919.37 853.182 2927.39V3326.36C853.182 3334.38 859.683 3340.88 867.703 3340.88H2427.34Z" fill="white" stroke="white" stroke-width="29.0435" stroke-linejoin="round"/>
<rect x="-14.5217" y="14.5217" width="1588.68" height="428.019" transform="matrix(1 0 0 -1 11319.7 1641.52)" fill="white" stroke="white" stroke-width="29.0435" stroke-linejoin="round"/>
<path d="M12117.7 2497.38C12125.7 2497.38 12132.2 2490.88 12132.2 2482.86V2083.88C12132.2 2075.86 12125.7 2069.36 12117.7 2069.36H10957C10949 2069.36 10942.5 2075.86 10942.5 2083.88V2482.86C10942.5 2490.88 10949 2497.38 10957 2497.38H12117.7Z" fill="white" stroke="white" stroke-width="29.0435" stroke-linejoin="round"/>
<path d="M12879.3 3349.88C12887.4 3349.88 12893.9 3343.37 12893.9 3335.35V2936.38C12893.9 2928.36 12887.4 2921.86 12879.3 2921.86H11319.7C11311.7 2921.86 11305.2 2928.36 11305.2 2936.38V3335.35C11305.2 3343.37 11311.7 3349.88 11319.7 3349.88H12879.3Z" fill="white" stroke="white" stroke-width="29.0435" stroke-linejoin="round"/>
<path d="M4145.23 2244.58C4144.31 2247.49 4144.33 2250.61 4145.28 2253.51L4365.17 2922.37C4367.11 2928.26 4372.57 2932.27 4378.77 2932.35C4384.98 2932.43 4390.54 2928.57 4392.63 2922.73L5008.41 1201.89C5010 1197.44 5009.33 1192.5 5006.61 1188.64C5003.89 1184.78 4999.46 1182.48 4994.74 1182.48H4492.95C4486.62 1182.48 4481.02 1186.58 4479.11 1192.61L4145.23 2244.58ZM4145.23 2244.58L4159.07 2248.97L4159.07 2248.97L4145.23 2244.58ZM3391.57 1182.48L3392.16 1182.49C3398.18 1182.73 3403.46 1186.69 3405.36 1192.45L3858.5 2565.71L3858.51 2565.73L4129.81 3390.96C4131.26 3395.39 4130.51 3400.24 4127.77 3404.01C4125.04 3407.79 4120.67 3410.02 4116.01 3410.02H3663.73C3657.62 3410.02 3652.17 3406.2 3650.08 3400.46L2850.63 1201.96C2849.01 1197.51 2849.66 1192.55 2852.38 1188.67C2855.1 1184.79 2859.54 1182.48 2864.27 1182.48H3391.57ZM8304.51 764.48C8312.53 764.48 8319.03 770.981 8319.03 779V3395.5C8319.03 3403.52 8312.53 3410.02 8304.51 3410.02H7819.74C7811.72 3410.02 7805.22 3403.52 7805.22 3395.5V779C7805.22 770.981 7811.72 764.48 7819.74 764.48H8304.51ZM9143.13 1182.48L9143.72 1182.49C9149.74 1182.73 9155.02 1186.69 9156.92 1192.45L9712.51 2876.18C9713.56 2877.5 9714.39 2879.01 9714.94 2880.67L9882.7 3390.96C9884.15 3395.39 9883.39 3400.24 9880.66 3404.01C9877.93 3407.79 9873.56 3410.02 9868.9 3410.02H9415.29C9409.18 3410.02 9403.73 3406.2 9401.64 3400.46L8602.19 1201.96C8600.57 1197.51 8601.23 1192.55 8603.94 1188.67C8606.66 1184.79 8611.1 1182.48 8615.83 1182.48H9143.13ZM10746.3 1182.48C10751 1182.48 10755.4 1184.78 10758.2 1188.64C10760.9 1192.5 10761.6 1197.44 10760 1201.89L10144.9 2920.79C10142.8 2926.63 10137.2 2930.5 10131 2930.42C10124.8 2930.34 10119.4 2926.33 10117.4 2920.44L9897.49 2251.46C9896.54 2248.56 9896.52 2245.43 9897.45 2242.53L10230.7 1192.61C10232.6 1186.58 10238.2 1182.48 10244.5 1182.48H10746.3ZM6095.48 3439.82C6095.48 3444.05 6093.63 3448.06 6090.43 3450.82C6087.23 3453.58 6082.99 3454.81 6078.81 3454.18C5985.32 3440.18 5897.89 3416.62 5816.58 3383.43C5816.46 3383.38 5816.35 3383.34 5816.24 3383.29C5678.48 3323.02 5560.61 3241.12 5462.81 3137.57C5462.76 3137.52 5462.71 3137.46 5462.66 3137.41C5367.7 3033.81 5294.45 2910.21 5242.83 2766.81C5242.8 2766.73 5242.77 2766.65 5242.74 2766.56C5193.97 2623.12 5169.68 2465.6 5169.68 2294.12C5169.68 2125.46 5193.98 1969.35 5242.74 1825.94L5242.83 1825.69C5294.45 1682.3 5367.7 1558.69 5462.66 1455.09L5462.81 1454.93C5560.66 1351.32 5678.62 1270.81 5816.48 1213.36C5957.43 1152.98 6116.72 1122.95 6294.08 1122.95L6298.24 1122.95C6473.89 1123.42 6630.41 1153.44 6767.5 1213.39C6908.11 1270.81 7026.08 1351.31 7121.14 1454.98C7219 1558.6 7292.3 1682.28 7341.11 1825.79C7392.75 1969.25 7418.48 2125.41 7418.48 2294.12C7418.48 2465.65 7392.76 2623.22 7341.11 2766.71C7292.3 2910.22 7219 3033.89 7121.14 3137.52C7026.09 3241.18 6908.15 3323.08 6767.57 3383.33C6767.52 3383.35 6767.48 3383.37 6767.43 3383.39C6696.94 3412.76 6621.3 3434.59 6540.56 3448.93C6536.33 3449.68 6531.99 3448.53 6528.69 3445.77C6525.4 3443.01 6523.5 3438.93 6523.5 3434.64V3023.18C6523.5 3017.51 6526.8 3012.36 6531.94 3009.99C6544.12 3004.38 6555.99 2998.27 6567.54 2991.67C6645.07 2947.37 6708.64 2889.3 6758.41 2817.41C6808.4 2745.2 6844.55 2664.61 6866.83 2575.51L6866.91 2575.22C6892.08 2482.9 6904.67 2389.21 6904.67 2294.12L6904.66 2289.8C6904.27 2199.02 6891.7 2108.2 6866.91 2017.28C6866.87 2017.15 6866.84 2017.02 6866.8 2016.88C6844.52 1924.97 6808.4 1844.51 6758.57 1775.31C6758.52 1775.24 6758.46 1775.16 6758.41 1775.09C6708.64 1703.2 6645.07 1645.13 6567.54 1600.83C6490.72 1556.93 6399.74 1534.7 6294.08 1534.7C6188.43 1534.7 6097.45 1556.93 6020.63 1600.83C5943.09 1645.13 5879.52 1703.2 5829.75 1775.09C5829.7 1775.16 5829.65 1775.24 5829.59 1775.31C5779.72 1844.58 5742.16 1925.11 5717.05 2017.1C5694.67 2109.49 5683.5 2201.83 5683.5 2294.12L5683.5 2298.59C5683.85 2392.2 5695.03 2484.45 5717.04 2575.36C5742.15 2664.51 5779.73 2745.16 5829.75 2817.41C5879.52 2889.3 5943.09 2947.37 6020.63 2991.67C6041.43 3003.56 6063.26 3013.85 6086.12 3022.54C6091.75 3024.68 6095.48 3030.08 6095.48 3036.11V3439.82Z" fill="white" stroke="white" stroke-width="29.04" stroke-linejoin="round"/>
<mask id="path-9-outside-1_4414_555" maskUnits="userSpaceOnUse" x="8629" y="3803.5" width="4084" height="1532" fill="black">
<rect fill="white" x="8629" y="3803.5" width="4084" height="1532"/>
<path d="M8813.63 4629.78V5297.5H8643.09V4187.53H8807.85V4360.96H8822.3C8848.32 4304.6 8887.82 4259.31 8940.82 4225.11C8993.81 4190.42 9062.22 4173.08 9146.04 4173.08C9221.2 4173.08 9286.96 4188.49 9343.32 4219.33C9399.69 4249.68 9443.53 4295.93 9474.84 4358.07C9506.16 4419.74 9521.82 4497.78 9521.82 4592.21V5297.5H9351.27V4603.77C9351.27 4516.57 9328.63 4448.64 9283.35 4399.99C9238.06 4350.85 9175.91 4326.28 9096.91 4326.28C9042.47 4326.28 8993.81 4338.08 8950.93 4361.69C8908.54 4385.29 8875.06 4419.74 8850.49 4465.02C8825.92 4510.31 8813.63 4565.23 8813.63 4629.78ZM10284.4 5320.62C10184.2 5320.62 10096.3 5296.78 10020.6 5249.08C9945.46 5201.39 9886.69 5134.67 9844.29 5048.91C9802.38 4963.16 9781.42 4862.95 9781.42 4748.3C9781.42 4632.67 9802.38 4531.75 9844.29 4445.51C9886.69 4359.28 9945.46 4292.31 10020.6 4244.62C10096.3 4196.92 10184.2 4173.08 10284.4 4173.08C10384.6 4173.08 10472.3 4196.92 10547.4 4244.62C10623.1 4292.31 10681.8 4359.28 10723.7 4445.51C10766.1 4531.75 10787.3 4632.67 10787.3 4748.3C10787.3 4862.95 10766.1 4963.16 10723.7 5048.91C10681.8 5134.67 10623.1 5201.39 10547.4 5249.08C10472.3 5296.78 10384.6 5320.62 10284.4 5320.62ZM10284.4 5167.43C10360.5 5167.43 10423.1 5147.91 10472.3 5108.89C10521.4 5069.87 10557.8 5018.56 10581.4 4954.97C10605 4891.38 10616.8 4822.49 10616.8 4748.3C10616.8 4674.11 10605 4604.97 10581.4 4540.9C10557.8 4476.83 10521.4 4425.04 10472.3 4385.53C10423.1 4346.03 10360.5 4326.28 10284.4 4326.28C10208.3 4326.28 10145.6 4346.03 10096.5 4385.53C10047.4 4425.04 10011 4476.83 9987.37 4540.9C9963.77 4604.97 9951.97 4674.11 9951.97 4748.3C9951.97 4822.49 9963.77 4891.38 9987.37 4954.97C10011 5018.56 10047.4 5069.87 10096.5 5108.89C10145.6 5147.91 10208.3 5167.43 10284.4 5167.43ZM11047.7 5297.5V4187.53H11212.4V4355.18H11224C11244.2 4300.26 11280.8 4255.7 11333.8 4221.49C11386.8 4187.29 11446.6 4170.19 11513 4170.19C11525.6 4170.19 11541.2 4170.43 11560 4170.91C11578.8 4171.39 11593 4172.11 11602.6 4173.08V4346.51C11596.9 4345.06 11583.6 4342.9 11562.9 4340.01C11542.7 4336.63 11521.2 4334.95 11498.6 4334.95C11444.6 4334.95 11396.5 4346.27 11354.1 4368.91C11312.1 4391.07 11278.9 4421.91 11254.3 4461.41C11230.2 4500.43 11218.2 4544.99 11218.2 4595.1V5297.5H11047.7ZM12190.2 5320.62C12097.7 5320.62 12016 5297.26 11945.2 5250.53C11874.4 5203.32 11819 5136.83 11779 5051.08C11739 4964.85 11719 4862.95 11719 4745.41C11719 4628.82 11739 4527.65 11779 4441.9C11819 4356.15 11874.6 4289.9 11945.9 4243.17C12017.2 4196.44 12099.6 4173.08 12193 4173.08C12265.3 4173.08 12322.4 4185.12 12364.3 4209.21C12406.7 4232.82 12439 4259.79 12461.1 4290.14C12483.8 4320.01 12501.4 4344.58 12513.9 4363.85H12528.3V3817.54H12698.9V5297.5H12534.1V5126.96H12513.9C12501.4 5147.19 12483.5 5172.72 12460.4 5203.56C12437.3 5233.91 12404.3 5261.13 12361.4 5285.22C12318.5 5308.82 12261.5 5320.62 12190.2 5320.62ZM12213.3 5167.43C12281.7 5167.43 12339.5 5149.6 12386.7 5113.95C12433.9 5077.82 12469.8 5027.96 12494.4 4964.36C12519 4900.29 12531.2 4826.34 12531.2 4742.51C12531.2 4659.65 12519.2 4587.15 12495.1 4525C12471 4462.37 12435.4 4413.72 12388.2 4379.03C12340.9 4343.86 12282.6 4326.28 12213.3 4326.28C12141 4326.28 12080.8 4344.82 12032.6 4381.92C11984.9 4418.53 11949 4468.39 11924.9 4531.51C11901.3 4594.13 11889.5 4664.47 11889.5 4742.51C11889.5 4821.52 11901.6 4893.31 11925.7 4957.86C11950.2 5021.93 11986.4 5073 12034.1 5111.06C12082.2 5148.64 12142 5167.43 12213.3 5167.43Z"/>
</mask>
<path d="M8813.63 4629.78V5297.5H8643.09V4187.53H8807.85V4360.96H8822.3C8848.32 4304.6 8887.82 4259.31 8940.82 4225.11C8993.81 4190.42 9062.22 4173.08 9146.04 4173.08C9221.2 4173.08 9286.96 4188.49 9343.32 4219.33C9399.69 4249.68 9443.53 4295.93 9474.84 4358.07C9506.16 4419.74 9521.82 4497.78 9521.82 4592.21V5297.5H9351.27V4603.77C9351.27 4516.57 9328.63 4448.64 9283.35 4399.99C9238.06 4350.85 9175.91 4326.28 9096.91 4326.28C9042.47 4326.28 8993.81 4338.08 8950.93 4361.69C8908.54 4385.29 8875.06 4419.74 8850.49 4465.02C8825.92 4510.31 8813.63 4565.23 8813.63 4629.78ZM10284.4 5320.62C10184.2 5320.62 10096.3 5296.78 10020.6 5249.08C9945.46 5201.39 9886.69 5134.67 9844.29 5048.91C9802.38 4963.16 9781.42 4862.95 9781.42 4748.3C9781.42 4632.67 9802.38 4531.75 9844.29 4445.51C9886.69 4359.28 9945.46 4292.31 10020.6 4244.62C10096.3 4196.92 10184.2 4173.08 10284.4 4173.08C10384.6 4173.08 10472.3 4196.92 10547.4 4244.62C10623.1 4292.31 10681.8 4359.28 10723.7 4445.51C10766.1 4531.75 10787.3 4632.67 10787.3 4748.3C10787.3 4862.95 10766.1 4963.16 10723.7 5048.91C10681.8 5134.67 10623.1 5201.39 10547.4 5249.08C10472.3 5296.78 10384.6 5320.62 10284.4 5320.62ZM10284.4 5167.43C10360.5 5167.43 10423.1 5147.91 10472.3 5108.89C10521.4 5069.87 10557.8 5018.56 10581.4 4954.97C10605 4891.38 10616.8 4822.49 10616.8 4748.3C10616.8 4674.11 10605 4604.97 10581.4 4540.9C10557.8 4476.83 10521.4 4425.04 10472.3 4385.53C10423.1 4346.03 10360.5 4326.28 10284.4 4326.28C10208.3 4326.28 10145.6 4346.03 10096.5 4385.53C10047.4 4425.04 10011 4476.83 9987.37 4540.9C9963.77 4604.97 9951.97 4674.11 9951.97 4748.3C9951.97 4822.49 9963.77 4891.38 9987.37 4954.97C10011 5018.56 10047.4 5069.87 10096.5 5108.89C10145.6 5147.91 10208.3 5167.43 10284.4 5167.43ZM11047.7 5297.5V4187.53H11212.4V4355.18H11224C11244.2 4300.26 11280.8 4255.7 11333.8 4221.49C11386.8 4187.29 11446.6 4170.19 11513 4170.19C11525.6 4170.19 11541.2 4170.43 11560 4170.91C11578.8 4171.39 11593 4172.11 11602.6 4173.08V4346.51C11596.9 4345.06 11583.6 4342.9 11562.9 4340.01C11542.7 4336.63 11521.2 4334.95 11498.6 4334.95C11444.6 4334.95 11396.5 4346.27 11354.1 4368.91C11312.1 4391.07 11278.9 4421.91 11254.3 4461.41C11230.2 4500.43 11218.2 4544.99 11218.2 4595.1V5297.5H11047.7ZM12190.2 5320.62C12097.7 5320.62 12016 5297.26 11945.2 5250.53C11874.4 5203.32 11819 5136.83 11779 5051.08C11739 4964.85 11719 4862.95 11719 4745.41C11719 4628.82 11739 4527.65 11779 4441.9C11819 4356.15 11874.6 4289.9 11945.9 4243.17C12017.2 4196.44 12099.6 4173.08 12193 4173.08C12265.3 4173.08 12322.4 4185.12 12364.3 4209.21C12406.7 4232.82 12439 4259.79 12461.1 4290.14C12483.8 4320.01 12501.4 4344.58 12513.9 4363.85H12528.3V3817.54H12698.9V5297.5H12534.1V5126.96H12513.9C12501.4 5147.19 12483.5 5172.72 12460.4 5203.56C12437.3 5233.91 12404.3 5261.13 12361.4 5285.22C12318.5 5308.82 12261.5 5320.62 12190.2 5320.62ZM12213.3 5167.43C12281.7 5167.43 12339.5 5149.6 12386.7 5113.95C12433.9 5077.82 12469.8 5027.96 12494.4 4964.36C12519 4900.29 12531.2 4826.34 12531.2 4742.51C12531.2 4659.65 12519.2 4587.15 12495.1 4525C12471 4462.37 12435.4 4413.72 12388.2 4379.03C12340.9 4343.86 12282.6 4326.28 12213.3 4326.28C12141 4326.28 12080.8 4344.82 12032.6 4381.92C11984.9 4418.53 11949 4468.39 11924.9 4531.51C11901.3 4594.13 11889.5 4664.47 11889.5 4742.51C11889.5 4821.52 11901.6 4893.31 11925.7 4957.86C11950.2 5021.93 11986.4 5073 12034.1 5111.06C12082.2 5148.64 12142 5167.43 12213.3 5167.43Z" fill="#4C4CFF"/>
<path d="M8813.63 5297.5V5311.5C8821.36 5311.5 8827.63 5305.23 8827.63 5297.5H8813.63ZM8643.09 5297.5H8629.09C8629.09 5305.23 8635.36 5311.5 8643.09 5311.5V5297.5ZM8643.09 4187.53V4173.53C8635.36 4173.53 8629.09 4179.8 8629.09 4187.53H8643.09ZM8807.85 4187.53H8821.85C8821.85 4179.8 8815.58 4173.53 8807.85 4173.53V4187.53ZM8807.85 4360.96H8793.85C8793.85 4368.69 8800.12 4374.96 8807.85 4374.96V4360.96ZM8822.3 4360.96V4374.96C8827.76 4374.96 8832.73 4371.79 8835.01 4366.83L8822.3 4360.96ZM8940.82 4225.11L8948.41 4236.87C8948.43 4236.85 8948.46 4236.84 8948.48 4236.82L8940.82 4225.11ZM9343.32 4219.33L9336.61 4231.61C9336.63 4231.62 9336.66 4231.64 9336.69 4231.65L9343.32 4219.33ZM9474.84 4358.07L9462.34 4364.37C9462.35 4364.39 9462.36 4364.4 9462.36 4364.41L9474.84 4358.07ZM9521.82 5297.5V5311.5C9529.55 5311.5 9535.82 5305.23 9535.82 5297.5H9521.82ZM9351.27 5297.5H9337.27C9337.27 5305.23 9343.54 5311.5 9351.27 5311.5V5297.5ZM9283.35 4399.99L9273.05 4409.47C9273.07 4409.49 9273.08 4409.51 9273.1 4409.52L9283.35 4399.99ZM8950.93 4361.69L8944.18 4349.42C8944.16 4349.43 8944.14 4349.44 8944.12 4349.45L8950.93 4361.69ZM8850.49 4465.02L8838.18 4458.35L8838.18 4458.35L8850.49 4465.02ZM8813.63 4629.78H8799.63V5297.5H8813.63H8827.63V4629.78H8813.63ZM8813.63 5297.5V5283.5H8643.09V5297.5V5311.5H8813.63V5297.5ZM8643.09 5297.5H8657.09V4187.53H8643.09H8629.09V5297.5H8643.09ZM8643.09 4187.53V4201.53H8807.85V4187.53V4173.53H8643.09V4187.53ZM8807.85 4187.53H8793.85V4360.96H8807.85H8821.85V4187.53H8807.85ZM8807.85 4360.96V4374.96H8822.3V4360.96V4346.96H8807.85V4360.96ZM8822.3 4360.96L8835.01 4366.83C8859.9 4312.92 8897.61 4269.66 8948.41 4236.87L8940.82 4225.11L8933.22 4213.34C8878.04 4248.96 8836.74 4296.28 8809.59 4355.1L8822.3 4360.96ZM8940.82 4225.11L8948.48 4236.82C8998.57 4204.04 9064.08 4187.08 9146.04 4187.08V4173.08V4159.08C9060.36 4159.08 8989.05 4176.8 8933.15 4213.39L8940.82 4225.11ZM9146.04 4173.08V4187.08C9219.25 4187.08 9282.63 4202.08 9336.61 4231.61L9343.32 4219.33L9350.04 4207.04C9291.29 4174.91 9223.15 4159.08 9146.04 4159.08V4173.08ZM9343.32 4219.33L9336.69 4231.65C9390.3 4260.52 9432.2 4304.55 9462.34 4364.37L9474.84 4358.07L9487.35 4351.77C9454.86 4287.3 9409.08 4238.83 9349.96 4207L9343.32 4219.33ZM9474.84 4358.07L9462.36 4364.41C9492.38 4423.53 9507.82 4499.22 9507.82 4592.21H9521.82H9535.82C9535.82 4496.34 9519.94 4415.95 9487.33 4351.73L9474.84 4358.07ZM9521.82 4592.21H9507.82V5297.5H9521.82H9535.82V4592.21H9521.82ZM9521.82 5297.5V5283.5H9351.27V5297.5V5311.5H9521.82V5297.5ZM9351.27 5297.5H9365.27V4603.77H9351.27H9337.27V5297.5H9351.27ZM9351.27 4603.77H9365.27C9365.27 4514.17 9341.97 4442.42 9293.59 4390.45L9283.35 4399.99L9273.1 4409.52C9315.3 4454.86 9337.27 4518.98 9337.27 4603.77H9351.27ZM9283.35 4399.99L9293.64 4390.5C9245.22 4337.96 9179.05 4312.28 9096.91 4312.28V4326.28V4340.28C9172.78 4340.28 9230.9 4363.74 9273.05 4409.47L9283.35 4399.99ZM9096.91 4326.28V4312.28C9040.38 4312.28 8989.35 4324.55 8944.18 4349.42L8950.93 4361.69L8957.68 4373.95C8998.27 4351.61 9044.56 4340.28 9096.91 4340.28V4326.28ZM8950.93 4361.69L8944.12 4349.45C8899.26 4374.43 8863.94 4410.88 8838.18 4458.35L8850.49 4465.02L8862.79 4471.7C8886.18 4428.6 8917.82 4396.15 8957.74 4373.92L8950.93 4361.69ZM8850.49 4465.02L8838.18 4458.35C8812.25 4506.14 8799.63 4563.48 8799.63 4629.78H8813.63H8827.63C8827.63 4566.98 8839.58 4514.48 8862.79 4471.7L8850.49 4465.02ZM10020.6 5249.08L10013.1 5260.9C10013.1 5260.91 10013.1 5260.92 10013.1 5260.93L10020.6 5249.08ZM9844.29 5048.91L9831.71 5055.06C9831.72 5055.08 9831.73 5055.1 9831.74 5055.12L9844.29 5048.91ZM9844.29 4445.51L9831.73 4439.33C9831.72 4439.35 9831.71 4439.37 9831.7 4439.39L9844.29 4445.51ZM10020.6 4244.62L10013.1 4232.78C10013.1 4232.78 10013.1 4232.79 10013.1 4232.8L10020.6 4244.62ZM10547.4 4244.62L10539.9 4256.44C10539.9 4256.45 10539.9 4256.45 10540 4256.46L10547.4 4244.62ZM10723.7 4445.51L10711.1 4451.63C10711.2 4451.65 10711.2 4451.67 10711.2 4451.69L10723.7 4445.51ZM10723.7 5048.91L10711.2 5042.71C10711.2 5042.73 10711.2 5042.75 10711.2 5042.77L10723.7 5048.91ZM10547.4 5249.08L10540 5237.24C10539.9 5237.25 10539.9 5237.26 10539.9 5237.26L10547.4 5249.08ZM10472.3 5108.89L10463.6 5097.93L10463.6 5097.93L10472.3 5108.89ZM10581.4 4954.97L10594.5 4959.84L10594.5 4959.84L10581.4 4954.97ZM10581.4 4540.9L10594.5 4536.06L10594.5 4536.06L10581.4 4540.9ZM10472.3 4385.53L10481 4374.62L10481 4374.62L10472.3 4385.53ZM10096.5 4385.53L10087.7 4374.62L10087.7 4374.62L10096.5 4385.53ZM9987.37 4540.9L9974.24 4536.06L9974.24 4536.06L9987.37 4540.9ZM9987.37 4954.97L9974.25 4959.84L9974.25 4959.84L9987.37 4954.97ZM10096.5 5108.89L10105.2 5097.93L10105.2 5097.93L10096.5 5108.89ZM10284.4 5320.62V5306.62C10186.5 5306.62 10101.2 5283.36 10028.1 5237.24L10020.6 5249.08L10013.1 5260.93C10091.3 5310.19 10181.9 5334.62 10284.4 5334.62V5320.62ZM10020.6 5249.08L10028.1 5237.26C9955.29 5191.05 9898.19 5126.34 9856.84 5042.71L9844.29 5048.91L9831.74 5055.12C9875.19 5142.99 9935.63 5211.73 10013.1 5260.9L10020.6 5249.08ZM9844.29 5048.91L9856.87 5042.77C9816.06 4959.27 9795.42 4861.25 9795.42 4748.3H9781.42H9767.42C9767.42 4864.66 9788.7 4967.05 9831.71 5055.06L9844.29 5048.91ZM9781.42 4748.3H9795.42C9795.42 4634.36 9816.07 4535.61 9856.88 4451.63L9844.29 4445.51L9831.7 4439.39C9788.69 4527.89 9767.42 4630.98 9767.42 4748.3H9781.42ZM9844.29 4445.51L9856.86 4451.69C9898.21 4367.57 9955.31 4302.64 10028.1 4256.44L10020.6 4244.62L10013.1 4232.8C9935.61 4281.98 9875.17 4350.98 9831.73 4439.33L9844.29 4445.51ZM10020.6 4244.62L10028.1 4256.46C10101.2 4210.34 10186.5 4187.08 10284.4 4187.08V4173.08V4159.08C10181.9 4159.08 10091.3 4183.51 10013.1 4232.78L10020.6 4244.62ZM10284.4 4173.08V4187.08C10382.3 4187.08 10467.3 4210.34 10539.9 4256.44L10547.4 4244.62L10554.9 4232.8C10477.2 4183.51 10386.9 4159.08 10284.4 4159.08V4173.08ZM10547.4 4244.62L10540 4256.46C10613.2 4302.66 10670.3 4367.57 10711.1 4451.63L10723.7 4445.51L10736.3 4439.39C10693.4 4350.99 10632.9 4281.96 10554.9 4232.78L10547.4 4244.62ZM10723.7 4445.51L10711.2 4451.69C10752.5 4535.65 10773.3 4634.39 10773.3 4748.3H10787.3H10801.3C10801.3 4630.96 10779.8 4527.84 10736.3 4439.33L10723.7 4445.51ZM10787.3 4748.3H10773.3C10773.3 4861.23 10752.5 4959.23 10711.2 5042.71L10723.7 5048.91L10736.3 5055.12C10779.8 4967.09 10801.3 4864.68 10801.3 4748.3H10787.3ZM10723.7 5048.91L10711.2 5042.77C10670.3 5126.35 10613.2 5191.03 10540 5237.24L10547.4 5249.08L10554.9 5260.93C10632.9 5211.75 10693.3 5142.99 10736.3 5055.06L10723.7 5048.91ZM10547.4 5249.08L10539.9 5237.26C10467.3 5283.36 10382.3 5306.62 10284.4 5306.62V5320.62V5334.62C10386.9 5334.62 10477.2 5310.2 10554.9 5260.9L10547.4 5249.08ZM10284.4 5167.43V5181.43C10363 5181.43 10428.9 5161.24 10481 5119.86L10472.3 5108.89L10463.6 5097.93C10417.4 5134.59 10358 5153.43 10284.4 5153.43V5167.43ZM10472.3 5108.89L10481 5119.86C10532.3 5079.12 10570.1 5025.63 10594.5 4959.84L10581.4 4954.97L10568.3 4950.1C10545.5 5011.5 10510.5 5060.62 10463.6 5097.93L10472.3 5108.89ZM10581.4 4954.97L10594.5 4959.84C10618.7 4894.55 10630.8 4823.99 10630.8 4748.3H10616.8H10602.8C10602.8 4820.98 10591.2 4888.2 10568.3 4950.1L10581.4 4954.97ZM10616.8 4748.3H10630.8C10630.8 4672.6 10618.7 4601.81 10594.5 4536.06L10581.4 4540.9L10568.2 4545.74C10591.2 4608.13 10602.8 4675.61 10602.8 4748.3H10616.8ZM10581.4 4540.9L10594.5 4536.06C10570.1 4469.81 10532.3 4415.85 10481 4374.62L10472.3 4385.53L10463.5 4396.44C10510.5 4434.23 10545.4 4483.84 10568.2 4545.74L10581.4 4540.9ZM10472.3 4385.53L10481 4374.62C10428.9 4332.73 10363 4312.28 10284.4 4312.28V4326.28V4340.28C10358 4340.28 10417.3 4359.33 10463.5 4396.44L10472.3 4385.53ZM10284.4 4326.28V4312.28C10205.8 4312.28 10139.8 4332.73 10087.7 4374.62L10096.5 4385.53L10105.3 4396.44C10151.4 4359.33 10210.8 4340.28 10284.4 4340.28V4326.28ZM10096.5 4385.53L10087.7 4374.62C10036.4 4415.85 9998.65 4469.81 9974.24 4536.06L9987.37 4540.9L10000.5 4545.74C10023.3 4483.84 10058.3 4434.23 10105.3 4396.44L10096.5 4385.53ZM9987.37 4540.9L9974.24 4536.06C9950.01 4601.81 9937.97 4672.6 9937.97 4748.3H9951.97H9965.97C9965.97 4675.61 9977.52 4608.13 10000.5 4545.74L9987.37 4540.9ZM9951.97 4748.3H9937.97C9937.97 4823.99 9950.01 4894.55 9974.25 4959.84L9987.37 4954.97L10000.5 4950.1C9977.52 4888.2 9965.97 4820.98 9965.97 4748.3H9951.97ZM9987.37 4954.97L9974.25 4959.84C9998.67 5025.63 10036.5 5079.12 10087.8 5119.86L10096.5 5108.89L10105.2 5097.93C10058.2 5060.62 10023.3 5011.5 10000.5 4950.1L9987.37 4954.97ZM10096.5 5108.89L10087.8 5119.86C10139.9 5161.24 10205.8 5181.43 10284.4 5181.43V5167.43V5153.43C10210.7 5153.43 10151.4 5134.59 10105.2 5097.93L10096.5 5108.89ZM11047.7 5297.5H11033.7C11033.7 5305.23 11039.9 5311.5 11047.7 5311.5V5297.5ZM11047.7 4187.53V4173.53C11039.9 4173.53 11033.7 4179.8 11033.7 4187.53H11047.7ZM11212.4 4187.53H11226.4C11226.4 4179.8 11220.2 4173.53 11212.4 4173.53V4187.53ZM11212.4 4355.18H11198.4C11198.4 4362.91 11204.7 4369.18 11212.4 4369.18V4355.18ZM11224 4355.18V4369.18C11229.9 4369.18 11235.1 4365.53 11237.1 4360.02L11224 4355.18ZM11333.8 4221.49L11326.2 4209.73L11326.2 4209.73L11333.8 4221.49ZM11602.6 4173.08H11616.6C11616.6 4165.88 11611.2 4159.86 11604 4159.15L11602.6 4173.08ZM11602.6 4346.51L11599.3 4360.09C11603.4 4361.14 11607.9 4360.2 11611.3 4357.54C11614.7 4354.89 11616.6 4350.82 11616.6 4346.51H11602.6ZM11562.9 4340.01L11560.6 4353.82C11560.7 4353.84 11560.8 4353.85 11561 4353.87L11562.9 4340.01ZM11354.1 4368.91L11360.6 4381.29C11360.6 4381.28 11360.6 4381.27 11360.7 4381.26L11354.1 4368.91ZM11254.3 4461.41L11242.4 4454.02C11242.4 4454.03 11242.4 4454.04 11242.4 4454.06L11254.3 4461.41ZM11218.2 5297.5V5311.5C11225.9 5311.5 11232.2 5305.23 11232.2 5297.5H11218.2ZM11047.7 5297.5H11061.7V4187.53H11047.7H11033.7V5297.5H11047.7ZM11047.7 4187.53V4201.53H11212.4V4187.53V4173.53H11047.7V4187.53ZM11212.4 4187.53H11198.4V4355.18H11212.4H11226.4V4187.53H11212.4ZM11212.4 4355.18V4369.18H11224V4355.18V4341.18H11212.4V4355.18ZM11224 4355.18L11237.1 4360.02C11256.2 4308.17 11290.8 4265.95 11341.4 4233.26L11333.8 4221.49L11326.2 4209.73C11270.9 4245.45 11232.2 4292.35 11210.8 4350.34L11224 4355.18ZM11333.8 4221.49L11341.4 4233.26C11392 4200.59 11449.1 4184.19 11513 4184.19V4170.19V4156.19C11444 4156.19 11381.6 4173.99 11326.2 4209.73L11333.8 4221.49ZM11513 4170.19V4184.19C11525.4 4184.19 11540.9 4184.42 11559.7 4184.9L11560 4170.91L11560.4 4156.91C11541.5 4156.43 11525.7 4156.19 11513 4156.19V4170.19ZM11560 4170.91L11559.7 4184.9C11578.4 4185.38 11592.1 4186.1 11601.3 4187.01L11602.6 4173.08L11604 4159.15C11593.9 4158.13 11579.2 4157.4 11560.4 4156.91L11560 4170.91ZM11602.6 4173.08H11588.6V4346.51H11602.6H11616.6V4173.08H11602.6ZM11602.6 4346.51L11606 4332.93C11599.4 4331.27 11585.3 4329 11564.8 4326.14L11562.9 4340.01L11561 4353.87C11581.9 4356.79 11594.3 4358.86 11599.3 4360.09L11602.6 4346.51ZM11562.9 4340.01L11565.2 4326.2C11544.1 4322.69 11521.9 4320.95 11498.6 4320.95V4334.95V4348.95C11520.5 4348.95 11541.2 4350.58 11560.6 4353.82L11562.9 4340.01ZM11498.6 4334.95V4320.95C11442.6 4320.95 11392.1 4332.71 11347.5 4356.56L11354.1 4368.91L11360.7 4381.26C11400.8 4359.83 11446.6 4348.95 11498.6 4348.95V4334.95ZM11354.1 4368.91L11347.5 4356.54C11303.5 4379.83 11268.4 4412.36 11242.4 4454.02L11254.3 4461.41L11266.2 4468.8C11289.5 4431.45 11320.8 4402.31 11360.6 4381.29L11354.1 4368.91ZM11254.3 4461.41L11242.4 4454.06C11216.8 4495.49 11204.2 4542.65 11204.2 4595.1H11218.2H11232.2C11232.2 4547.34 11243.7 4505.37 11266.3 4468.76L11254.3 4461.41ZM11218.2 4595.1H11204.2V5297.5H11218.2H11232.2V4595.1H11218.2ZM11218.2 5297.5V5283.5H11047.7V5297.5V5311.5H11218.2V5297.5ZM11945.2 5250.53L11937.4 5262.18C11937.4 5262.19 11937.4 5262.2 11937.5 5262.21L11945.2 5250.53ZM11779 5051.08L11766.3 5056.97C11766.3 5056.98 11766.3 5056.99 11766.3 5057L11779 5051.08ZM11779 4441.9L11766.3 4435.98L11766.3 4435.98L11779 4441.9ZM11945.9 4243.17L11938.2 4231.46L11938.2 4231.46L11945.9 4243.17ZM12364.3 4209.21L12357.3 4221.35C12357.4 4221.38 12357.4 4221.41 12357.5 4221.44L12364.3 4209.21ZM12461.1 4290.14L12449.8 4298.4C12449.9 4298.47 12449.9 4298.54 12450 4298.6L12461.1 4290.14ZM12513.9 4363.85L12502.2 4371.48C12504.7 4375.46 12509.2 4377.85 12513.9 4377.85V4363.85ZM12528.3 4363.85V4377.85C12536.1 4377.85 12542.3 4371.59 12542.3 4363.85H12528.3ZM12528.3 3817.54V3803.54C12520.6 3803.54 12514.3 3809.81 12514.3 3817.54H12528.3ZM12698.9 3817.54H12712.9C12712.9 3809.81 12706.6 3803.54 12698.9 3803.54V3817.54ZM12698.9 5297.5V5311.5C12706.6 5311.5 12712.9 5305.23 12712.9 5297.5H12698.9ZM12534.1 5297.5H12520.1C12520.1 5305.23 12526.4 5311.5 12534.1 5311.5V5297.5ZM12534.1 5126.96H12548.1C12548.1 5119.23 12541.9 5112.96 12534.1 5112.96V5126.96ZM12513.9 5126.96V5112.96C12509 5112.96 12504.5 5115.47 12502 5119.59L12513.9 5126.96ZM12460.4 5203.56L12471.6 5212.04C12471.6 5212.01 12471.6 5211.99 12471.6 5211.96L12460.4 5203.56ZM12361.4 5285.22L12368.2 5297.48C12368.2 5297.46 12368.2 5297.44 12368.3 5297.42L12361.4 5285.22ZM12386.7 5113.95L12395.1 5125.12C12395.2 5125.1 12395.2 5125.09 12395.2 5125.07L12386.7 5113.95ZM12494.4 4964.36L12507.4 4969.41C12507.4 4969.4 12507.4 4969.39 12507.5 4969.38L12494.4 4964.36ZM12495.1 4525L12482 4530.03C12482 4530.04 12482 4530.05 12482.1 4530.06L12495.1 4525ZM12388.2 4379.03L12379.8 4390.26C12379.8 4390.27 12379.8 4390.29 12379.9 4390.31L12388.2 4379.03ZM12032.6 4381.92L12041.1 4393.02C12041.1 4393.02 12041.2 4393.02 12041.2 4393.01L12032.6 4381.92ZM11924.9 4531.51L11911.9 4526.51C11911.9 4526.53 11911.9 4526.55 11911.8 4526.57L11924.9 4531.51ZM11925.7 4957.86L11912.6 4962.75C11912.6 4962.79 11912.6 4962.83 11912.6 4962.87L11925.7 4957.86ZM12034.1 5111.06L12025.3 5122C12025.4 5122.03 12025.4 5122.07 12025.5 5122.1L12034.1 5111.06ZM12190.2 5320.62V5306.62C12100.1 5306.62 12021.2 5283.93 11952.9 5238.84L11945.2 5250.53L11937.5 5262.21C12010.8 5310.59 12095.2 5334.62 12190.2 5334.62V5320.62ZM11945.2 5250.53L11952.9 5238.88C11884.5 5193.25 11830.7 5128.86 11791.7 5045.16L11779 5051.08L11766.3 5057C11807.2 5144.81 11864.2 5213.39 11937.4 5262.18L11945.2 5250.53ZM11779 5051.08L11791.7 5045.19C11752.7 4961.19 11733 4861.39 11733 4745.41H11719H11705C11705 4864.52 11725.3 4968.51 11766.3 5056.97L11779 5051.08ZM11719 4745.41H11733C11733 4630.4 11752.7 4531.34 11791.7 4447.81L11779 4441.9L11766.3 4435.98C11725.3 4523.97 11705 4627.24 11705 4745.41H11719ZM11779 4441.9L11791.7 4447.81C11830.7 4364.15 11884.7 4300.03 11953.6 4254.88L11945.9 4243.17L11938.2 4231.46C11864.5 4279.77 11807.2 4348.14 11766.3 4435.98L11779 4441.9ZM11945.9 4243.17L11953.6 4254.88C12022.4 4209.79 12102 4187.08 12193 4187.08V4173.08V4159.08C12097.1 4159.08 12012 4183.1 11938.2 4231.46L11945.9 4243.17ZM12193 4173.08V4187.08C12264 4187.08 12318.3 4198.94 12357.3 4221.35L12364.3 4209.21L12371.3 4197.07C12326.4 4171.3 12266.6 4159.08 12193 4159.08V4173.08ZM12364.3 4209.21L12357.5 4221.44C12398.6 4244.34 12429.2 4270.09 12449.8 4298.4L12461.1 4290.14L12472.4 4281.89C12448.8 4249.5 12414.8 4221.29 12371.1 4196.98L12364.3 4209.21ZM12461.1 4290.14L12450 4298.6C12472.5 4328.35 12489.9 4352.62 12502.2 4371.48L12513.9 4363.85L12525.6 4356.22C12512.8 4336.55 12495 4311.68 12472.3 4281.69L12461.1 4290.14ZM12513.9 4363.85V4377.85H12528.3V4363.85V4349.85H12513.9V4363.85ZM12528.3 4363.85H12542.3V3817.54H12528.3H12514.3V4363.85H12528.3ZM12528.3 3817.54V3831.54H12698.9V3817.54V3803.54H12528.3V3817.54ZM12698.9 3817.54H12684.9V5297.5H12698.9H12712.9V3817.54H12698.9ZM12698.9 5297.5V5283.5H12534.1V5297.5V5311.5H12698.9V5297.5ZM12534.1 5297.5H12548.1V5126.96H12534.1H12520.1V5297.5H12534.1ZM12534.1 5126.96V5112.96H12513.9V5126.96V5140.96H12534.1V5126.96ZM12513.9 5126.96L12502 5119.59C12489.8 5139.32 12472.2 5164.48 12449.2 5195.16L12460.4 5203.56L12471.6 5211.96C12494.9 5180.97 12513 5155.06 12525.8 5134.33L12513.9 5126.96ZM12460.4 5203.56L12449.3 5195.07C12427.6 5223.53 12396.2 5249.6 12354.6 5273.01L12361.4 5285.22L12368.3 5297.42C12412.4 5272.66 12447 5244.28 12471.6 5212.04L12460.4 5203.56ZM12361.4 5285.22L12354.7 5272.95C12314.6 5295.02 12260.1 5306.62 12190.2 5306.62V5320.62V5334.62C12262.8 5334.62 12322.5 5322.63 12368.2 5297.48L12361.4 5285.22ZM12213.3 5167.43V5181.43C12284.2 5181.43 12345.1 5162.89 12395.1 5125.12L12386.7 5113.95L12378.3 5102.78C12333.9 5136.32 12279.1 5153.43 12213.3 5153.43V5167.43ZM12386.7 5113.95L12395.2 5125.07C12444.8 5087.15 12482.1 5035.05 12507.4 4969.41L12494.4 4964.36L12481.3 4959.32C12457.5 5020.87 12423.1 5068.49 12378.2 5102.83L12386.7 5113.95ZM12494.4 4964.36L12507.5 4969.38C12532.8 4903.39 12545.2 4827.69 12545.2 4742.51H12531.2H12517.2C12517.2 4825 12505.1 4897.19 12481.3 4959.35L12494.4 4964.36ZM12531.2 4742.51H12545.2C12545.2 4658.33 12533 4584.04 12508.2 4519.94L12495.1 4525L12482.1 4530.06C12505.4 4590.25 12517.2 4660.98 12517.2 4742.51H12531.2ZM12495.1 4525L12508.2 4519.98C12483.3 4455.22 12446.1 4404.24 12396.4 4367.75L12388.2 4379.03L12379.9 4390.31C12424.6 4423.19 12458.8 4469.53 12482 4530.03L12495.1 4525ZM12388.2 4379.03L12396.5 4367.8C12346.5 4330.53 12285.1 4312.28 12213.3 4312.28V4326.28V4340.28C12280.2 4340.28 12335.4 4357.19 12379.8 4390.26L12388.2 4379.03ZM12213.3 4326.28V4312.28C12138.5 4312.28 12075.1 4331.51 12024.1 4370.83L12032.6 4381.92L12041.2 4393.01C12086.4 4358.14 12143.5 4340.28 12213.3 4340.28V4326.28ZM12032.6 4381.92L12024.1 4370.81C11974.1 4409.19 11936.8 4461.29 11911.9 4526.51L11924.9 4531.51L11938 4536.5C11961.3 4475.5 11995.7 4427.87 12041.1 4393.02L12032.6 4381.92ZM11924.9 4531.51L11911.8 4526.57C11887.6 4591.01 11875.5 4663.06 11875.5 4742.51H11889.5H11903.5C11903.5 4665.88 11915.1 4597.25 11938 4536.44L11924.9 4531.51ZM11889.5 4742.51H11875.5C11875.5 4822.95 11887.8 4896.42 11912.6 4962.75L11925.7 4957.86L11938.8 4952.97C11915.4 4890.19 11903.5 4820.09 11903.5 4742.51H11889.5ZM11925.7 4957.86L11912.6 4962.87C11937.9 5028.98 11975.5 5082.2 12025.3 5122L12034.1 5111.06L12042.8 5100.12C11997.3 5063.8 11962.5 5014.89 11938.7 4952.85L11925.7 4957.86ZM12034.1 5111.06L12025.5 5122.1C12076.5 5161.9 12139.4 5181.43 12213.3 5181.43V5167.43V5153.43C12144.6 5153.43 12088 5135.37 12042.7 5100.02L12034.1 5111.06Z" fill="#4C4CFF" mask="url(#path-9-outside-1_4414_555)"/>
</svg>
